<?xml version="1.0" encoding="UTF-8"?>
<svg width="32px" height="32px" viewBox="0 0 32 32" version="1.1" xmlns="http://www.w3.org/2000/svg" xmlns:xlink="http://www.w3.org/1999/xlink">
    <!-- Generator: Sketch 53.2 (72643) - https://sketchapp.com -->
    <title>email_icon</title>
    <desc>Created with Sketch.</desc>
    <g id="Page-1" stroke="none" stroke-width="1" fill="none" fill-rule="evenodd">
        <g id="iPhone-XS" transform="translate(-39.000000, -693.000000)">
            <g id="Group-2" transform="translate(0.000000, 557.000000)">
                <g id="Group" transform="translate(39.000000, 136.000000)">
                    <g id="email_icon">
                        <rect id="Rectangle" fill="#D0021B" x="0" y="0" width="32" height="32" rx="4"></rect>
                        <path d="M6.32626852,9.26101482 C6.12579057,9.44389447 6,9.70725725 6,10 L6,22 C6,22.5522847 6.44771525,23 7,23 L25,23 C25.5522847,23 26,22.5522847 26,22 L26,10 C26,9.70725725 25.8742094,9.44389447 25.6737315,9.26101482 L16,17 L6.32626852,9.26101482 Z M7,8 L25,8 C26.1045695,8 27,8.8954305 27,10 L27,22 C27,23.1045695 26.1045695,24 25,24 L7,24 C5.8954305,24 5,23.1045695 5,22 L5,10 C5,8.8954305 5.8954305,8 7,8 Z" id="Combined-Shape" fill="#FFFFFF" fill-rule="nonzero"></path>
                    </g>
                </g>
            </g>
        </g>
    </g>
</svg>