<?xml version="1.0" encoding="UTF-8"?>
<svg width="72px" height="72px" viewBox="0 0 72 72" version="1.1" xmlns="http://www.w3.org/2000/svg" xmlns:xlink="http://www.w3.org/1999/xlink">
    <!-- Generator: Sketch 48.2 (47327) - http://www.bohemiancoding.com/sketch -->
    <title>Empatheticbot | Small</title>
    <desc>Created with Sketch.</desc>
    <defs></defs>
    <g id="Symbols" stroke="none" stroke-width="1" fill="none" fill-rule="evenodd">
        <g id="Robo-Final" fill="#282828">
            <path d="M51,19.531272 L51,14 C51,12.8954305 51.8954305,12 53,12 L55,12 C56.1045695,12 57,12.8954305 57,14 L57,21.8522839 C60.365488,23.25546 62.6376944,24.3664804 62.6376944,24.3664804 C65.0439409,25.4484441 67.4985738,28.426133 68.1445231,30.986537 C68.1445231,30.986537 69.6546123,35.2950315 69.953261,44.2886598 C70.2502789,53.2331758 69.0345334,57.528334 69.0345334,57.528334 C68.5930593,60.1252195 66.1450456,62.9143754 63.6517496,63.7625375 C63.6517496,63.7625375 46.5545003,70 36.0002684,70 C25.4460365,70 8.34878732,63.7625375 8.34878732,63.7625375 C5.84762259,62.9268952 3.44401531,60.1223956 2.96260499,57.5264761 C2.96260499,57.5264761 1.74862626,53.2823159 2.04727588,44.2886598 C2.3459255,35.2950037 3.85601406,30.9865277 3.85601406,30.9865277 C4.46619074,28.4168718 6.96745435,25.4622327 9.36284253,24.3664804 C9.36284253,24.3664804 26.0940596,16.185567 36.0002684,16.185567 C40.349167,16.185567 46.0134321,17.7622537 51.0000003,19.5312729 Z M22.8956046,51.4639175 C28.8172004,51.4639175 33.6176023,46.6452091 33.6176023,40.7010309 C33.6176023,34.7568528 28.8172004,29.9381443 22.8956046,29.9381443 C16.9740089,29.9381443 12.173607,34.7568528 12.173607,40.7010309 C12.173607,46.6452091 16.9740089,51.4639175 22.8956046,51.4639175 Z M49.1049322,51.4639175 C55.026528,51.4639175 59.8269299,46.6452091 59.8269299,40.7010309 C59.8269299,34.7568528 55.026528,29.9381443 49.1049322,29.9381443 C43.1833365,29.9381443 38.3829346,34.7568528 38.3829346,40.7010309 C38.3829346,46.6452091 43.1833365,51.4639175 49.1049322,51.4639175 Z" id="Combined-Shape"></path>
            <path d="M52.8704412,8.23990885 L52.8773305,8.23705088 C52.8803831,8.23468583 52.8825324,8.23319718 52.8837848,8.23247352 C52.8795209,8.23493723 52.8750704,8.23741763 52.8704412,8.23990885 Z M55.1256278,8.23939224 L55.1191247,8.23414077 L55.1162152,8.23247352 C55.1178395,8.23341204 55.1209722,8.23563728 55.1256278,8.23939224 Z M58,14 C58,12.3431458 56.6568542,11 55,11 L53,11 C51.3431458,11 50,12.3431458 50,14 L50,18 C48.6029885,16.8512651 47.6364639,15.972908 47.1004261,15.3649286 C45.246159,13.2618003 44.4735919,10.4712706 45.3791362,7.69816174 C46.2949946,4.893467 49.3367435,3.35398198 52.1730724,4.2596257 C52.8636331,4.48012269 53.4783493,4.82523184 54,5.26168222 C54.5216507,4.82523184 55.1363669,4.48012269 55.8269276,4.2596257 C58.6632565,3.35398198 61.7050054,4.893467 62.6208638,7.69816174 C63.5264081,10.4712706 62.753841,13.2618003 60.8995739,15.3649286 C60.0955172,16.2768977 59.1054557,17.4096455 58,18 L58,14 Z" id="Combined-Shape" fill-rule="nonzero"></path>
        </g>
    </g>
</svg>