<?xml version="1.0" encoding="UTF-8"?>
<svg width="36px" height="36px" viewBox="0 0 36 36" version="1.1" xmlns="http://www.w3.org/2000/svg" xmlns:xlink="http://www.w3.org/1999/xlink">
    <!-- Generator: Sketch 53.2 (72643) - https://sketchapp.com -->
    <title>Home</title>
    <desc>Created with Sketch.</desc>
    <g id="Home" stroke="none" stroke-width="1" fill="none" fill-rule="evenodd">
        <circle id="Oval" fill="#4286F4" cx="18" cy="18" r="18"></circle>
        <path d="M9.78923296,14.4336162 L18,7 L26.210767,14.4336162 C26.7133094,14.8885929 27,15.5348785 27,16.2127817 L27,27.3703704 C27,28.27039 26.267375,29 25.3636364,29 L22.0727273,29 C21.6308995,29 21.2727273,28.6418278 21.2727273,28.2 L21.2727273,20.037037 C21.2727273,18.6870076 20.1737898,17.5925926 18.8181818,17.5925926 L17.1818182,17.5925926 C15.8262102,17.5925926 14.7272727,18.6870076 14.7272727,20.037037 L14.7272727,28.2 C14.7272727,28.6418278 14.3691005,29 13.9272727,29 L10.6363636,29 C9.73262495,29 9,28.27039 9,27.3703704 L9,16.2127817 C9,15.5348785 9.28669055,14.8885929 9.78923296,14.4336162 Z" id="Path" fill="#FDFDFD"></path>
    </g>
</svg>