<?xml version="1.0" encoding="UTF-8"?>
<svg viewBox="0 0 124 124" version="1.1" xmlns="http://www.w3.org/2000/svg" xmlns:xlink="http://www.w3.org/1999/xlink">
    <!-- Generator: Sketch 53.2 (72643) - https://sketchapp.com -->
    <title>Link</title>
    <desc>Created with Sketch.</desc>
    <g id="Link" stroke="none" stroke-width="1" fill="none" fill-rule="evenodd">
        <g id="Group" transform="translate(62.000000, 62.000000) rotate(45.000000) translate(-62.000000, -62.000000) ">
            <circle id="Oval" fill="#4286F4" cx="62" cy="62" r="62"></circle>
            <path d="M61,17.5 C56.3055796,17.5 52.5,21.3055796 52.5,26 L52.5,60 C52.5,64.6944204 56.3055796,68.5 61,68.5 C65.6944204,68.5 69.5,64.6944204 69.5,60 L69.5,26 C69.5,21.3055796 65.6944204,17.5 61,17.5 Z M61,12.5 C68.4558441,12.5 74.5,18.5441559 74.5,26 L74.5,60 C74.5,67.4558441 68.4558441,73.5 61,73.5 C53.5441559,73.5 47.5,67.4558441 47.5,60 L47.5,26 C47.5,18.5441559 53.5441559,12.5 61,12.5 Z" id="Rectangle" stroke="#4286F4" fill="#FDFDFD" fill-rule="nonzero"></path>
            <path d="M52.5,56.4979372 L52.5,60 C52.5,62.4509859 53.5423969,64.73271 55.3334569,66.3357521 L55.5,66.4848122 L55.5,72.3600112 L54.7689071,71.9789703 C53.1765496,71.1490438 51.7636555,70.0073784 50.6155678,68.626854 L50.5,68.4878888 L50.5,64 C50.5,62.1915652 50.8560283,60.4319504 51.5386616,58.7984135 L52.5,56.4979372 Z M69.5,57.5151878 L69.5,51.6399888 L70.2310929,52.0210297 C71.8234504,52.8509562 73.2363445,53.9926216 74.3844322,55.373146 L74.5,55.5121112 L74.5,60 C74.5,61.8084348 74.1439717,63.5680496 73.4613384,65.2015865 L72.5,67.5020628 L72.5,64 C72.5,61.5490141 71.4576031,59.26729 69.6665431,57.6642479 L69.5,57.5151878 Z" id="Combined-Shape" stroke="#4286F4" fill="#FDFDFD" fill-rule="nonzero"></path>
            <path d="M64,55.5 C59.3055796,55.5 55.5,59.3055796 55.5,64 L55.5,98 C55.5,102.69442 59.3055796,106.5 64,106.5 C68.6944204,106.5 72.5,102.69442 72.5,98 L72.5,64 C72.5,59.3055796 68.6944204,55.5 64,55.5 Z M64,50.5 C71.4558441,50.5 77.5,56.5441559 77.5,64 L77.5,98 C77.5,105.455844 71.4558441,111.5 64,111.5 C56.5441559,111.5 50.5,105.455844 50.5,98 L50.5,64 C50.5,56.5441559 56.5441559,50.5 64,50.5 Z" id="Rectangle" stroke="#4286F4" fill="#FDFDFD" fill-rule="nonzero"></path>
        </g>
    </g>
</svg>