<?xml version="1.0" encoding="UTF-8"?>
<svg viewBox="0 0 36 36" version="1.1" xmlns="http://www.w3.org/2000/svg" xmlns:xlink="http://www.w3.org/1999/xlink">
    <!-- Generator: Sketch 53.2 (72643) - https://sketchapp.com -->
    <title>Link</title>
    <desc>Created with Sketch.</desc>
    <g id="Link" stroke="none" stroke-width="1" fill="none" fill-rule="evenodd">
        <g id="Group" transform="translate(18.000000, 18.000000) rotate(45.000000) translate(-18.000000, -18.000000) ">
            <circle id="Oval" fill="#4286F4" cx="18" cy="18" r="18"></circle>
            <path d="M17.7096774,5.18548387 C16.404682,5.18548387 15.3467742,6.24339168 15.3467742,7.5483871 L15.3467742,17.4193548 C15.3467742,18.7243503 16.404682,19.7822581 17.7096774,19.7822581 C19.0146728,19.7822581 20.0725806,18.7243503 20.0725806,17.4193548 L20.0725806,7.5483871 C20.0725806,6.24339168 19.0146728,5.18548387 17.7096774,5.18548387 Z M17.7096774,3.52419355 C19.9321781,3.52419355 21.733871,5.32588637 21.733871,7.5483871 L21.733871,17.4193548 C21.733871,19.6418556 19.9321781,21.4435484 17.7096774,21.4435484 C15.4871767,21.4435484 13.6854839,19.6418556 13.6854839,17.4193548 L13.6854839,7.5483871 C13.6854839,5.32588637 15.4871767,3.52419355 17.7096774,3.52419355 Z" id="Rectangle" stroke="#4286F4" stroke-width="0.5" fill="#FDFDFD" fill-rule="nonzero"></path>
            <path d="M18.5806452,16.2177419 C17.2756497,16.2177419 16.2177419,17.2756497 16.2177419,18.5806452 L16.2177419,28.4516129 C16.2177419,29.7566083 17.2756497,30.8145161 18.5806452,30.8145161 C19.8856406,30.8145161 20.9435484,29.7566083 20.9435484,28.4516129 L20.9435484,18.5806452 C20.9435484,17.2756497 19.8856406,16.2177419 18.5806452,16.2177419 Z M18.5806452,14.5564516 C20.8031459,14.5564516 22.6048387,16.3581444 22.6048387,18.5806452 L22.6048387,28.4516129 C22.6048387,30.6741136 20.8031459,32.4758065 18.5806452,32.4758065 C16.3581444,32.4758065 14.5564516,30.6741136 14.5564516,28.4516129 L14.5564516,18.5806452 C14.5564516,16.3581444 16.3581444,14.5564516 18.5806452,14.5564516 Z" id="Rectangle" stroke="#4286F4" stroke-width="0.5" fill="#FDFDFD" fill-rule="nonzero"></path>
            <path d="M21.733871,7.5483871 L21.733871,17.4193548 C21.733871,19.4113699 20.2774063,21.0952937 18.3284733,21.396231 L18.0403226,21.4407248 L18.0403226,19.767884 L18.2350009,19.7237092 C19.3021768,19.4815541 20.0725806,18.5284718 20.0725806,17.4193548 L20.0725806,7.5483871 C20.0725806,6.43927012 19.3021768,5.48618782 18.2350009,5.24403278 L18.0403226,5.19985792 L18.0403226,3.52701718 L18.3284733,3.57151091 C20.2774063,3.87244823 21.733871,5.55637199 21.733871,7.5483871 Z" id="Combined-Shape" stroke="#4286F4" stroke-width="0.5" fill="#FDFDFD"></path>
            <path d="M21.483871,7.5483871 L21.483871,17.4193548 C21.483871,19.5037844 19.794107,21.1935484 17.7096774,21.1935484 L17.7096774,20.0322581 C19.152744,20.0322581 20.3225806,18.8624214 20.3225806,17.4193548 L20.3225806,7.5483871 C20.3225806,6.10532049 19.152744,4.93548387 17.7096774,4.93548387 L17.7096774,3.77419355 C19.794107,3.77419355 21.483871,5.46395756 21.483871,7.5483871 Z" id="Combined-Shape" fill="#FDFDFD"></path>
        </g>
    </g>
</svg>