<?xml version="1.0" encoding="UTF-8"?>
<svg width="32px" height="32px" viewBox="0 0 32 32" version="1.1" xmlns="http://www.w3.org/2000/svg" xmlns:xlink="http://www.w3.org/1999/xlink">
    <!-- Generator: Sketch 54.1 (76490) - https://sketchapp.com -->
    <title>Link Icon</title>
    <desc>Created with Sketch.</desc>
    <g id="Link-Icon" stroke="none" stroke-width="1" fill="none" fill-rule="evenodd">
        <circle id="Oval" stroke="#EAEAEA" stroke-width="0.5" fill="#F3F3F6" cx="16" cy="16" r="16"></circle>
        <g id="Group" transform="translate(16.000000, 16.000000) rotate(45.000000) translate(-16.000000, -16.000000) translate(12.000000, 2.000000)" fill="#4286F4" fill-rule="nonzero">
            <path d="M4,12 C6.209139,12 8,13.790861 8,16 L8,24 C8,26.209139 6.209139,28 4,28 C1.790861,28 0,26.209139 0,24 L0,16 C0,13.790861 1.790861,12 4,12 Z M4,13.5 C2.61928813,13.5 1.5,14.6192881 1.5,16 L1.5,24 C1.5,25.3807119 2.61928813,26.5 4,26.5 C5.38071187,26.5 6.5,25.3807119 6.5,24 L6.5,16 C6.5,14.6192881 5.38071187,13.5 4,13.5 Z" id="Rectangle"></path>
            <path d="M0.318727314,13.8748185 C0.611379556,13.3689101 1.00597863,12.927806 1.47593158,12.5803841 L1.75403035,12.3747941 L1.86204203,12.7033358 C2.00584556,13.1407464 2.28209286,13.5237673 2.64992497,13.8001266 L2.91595487,14 L2.64992497,14.1998734 C2.28209286,14.4762327 2.00584556,14.8592536 1.86204203,15.2966642 L1.75403035,15.6252059 L1.47593158,15.4196159 C1.00597863,15.072194 0.611379556,14.6310899 0.318727314,14.1251815 L0.246313733,14 L0.318727314,13.8748185 Z" id="Combined-Shape" stroke="#F3F3F6" stroke-width="0.5"></path>
            <path d="M4,0 C6.209139,0 8,1.790861 8,4 L8,12 C8,14.209139 6.209139,16 4,16 C1.790861,16 0,14.209139 0,12 L0,4 C0,1.790861 1.790861,0 4,0 Z M4,1.5 C2.61928813,1.5 1.5,2.61928813 1.5,4 L1.5,12 C1.5,13.3807119 2.61928813,14.5 4,14.5 C5.38071187,14.5 6.5,13.3807119 6.5,12 L6.5,4 C6.5,2.61928813 5.38071187,1.5 4,1.5 Z" id="Rectangle"></path>
            <path d="M6.52406842,12.5803841 C6.99402137,12.927806 7.38862044,13.3689101 7.68127269,13.8748185 L7.75368627,14 L7.68127269,14.1251815 C7.38862044,14.6310899 6.99402137,15.072194 6.52406842,15.4196159 L6.24596965,15.6252059 L6.13795797,15.2966642 C5.99415444,14.8592536 5.71790714,14.4762327 5.35007503,14.1998734 L5.08404513,14 L5.35007503,13.8001266 C5.71790714,13.5237673 5.99415444,13.1407464 6.13795797,12.7033358 L6.24596965,12.3747941 L6.52406842,12.5803841 Z" id="Combined-Shape" stroke="#F3F3F6" stroke-width="0.5"></path>
            <path d="M4,28 L4,26.5 C5.38071187,26.5 6.5,25.3807119 6.5,24 L6.5,16 C6.5,14.6192881 5.38071187,13.5 4,13.5 L4,12 C6.209139,12 8,13.790861 8,16 L8,24 C8,26.209139 6.209139,28 4,28 Z" id="Combined-Shape"></path>
        </g>
    </g>
</svg>