<?xml version="1.0" encoding="UTF-8"?>
<svg id="link-icon" width="64px" height="64px" viewBox="0 0 64 64" version="1.1" xmlns="http://www.w3.org/2000/svg" xmlns:xlink="http://www.w3.org/1999/xlink">
    <!-- Generator: Sketch 54.1 (76490) - https://sketchapp.com -->
    <title>Link Icon</title>
    <desc>Created with Sketch.</desc>
    <g id="Link-Icon" stroke="none" stroke-width="1" fill="none" fill-rule="evenodd">
        <g id="Group" transform="translate(32.000000, 32.500000) rotate(45.000000) translate(-32.000000, -32.500000) translate(19.000000, 6.000000)" fill="#4286F4" fill-rule="nonzero">
            <path d="M7,32.5355787 L7,32 C7,29.9710495 8.00708809,28.1773169 9.54865594,27.0914108 C10.5671918,27.6697481 11.7450287,28 13,28 C16.8659932,28 20,24.8659932 20,21 L20,13 C20,9.13400675 16.8659932,6 13,6 C9.13400675,6 6,9.13400675 6,13 L6,19.8729507 C3.7840477,21.1548099 1.95205356,23.0266028 0.718769024,25.2735778 C0.253071467,23.9351235 0,22.4971157 0,21 L0,13 C0,5.82029825 5.82029825,1.15463195e-15 13,0 C20.1797017,-1.15463195e-15 26,5.82029825 26,13 L26,21 C26,28.1797017 20.1797017,34 13,34 C10.8357467,34 8.7950175,33.4711304 7,32.5355787 Z" id="Combined-Shape"></path>
            <path d="M7,51.5355787 L7,51 C7,48.9710495 8.00708809,47.1773169 9.54865594,46.0914108 C10.5671918,46.6697481 11.7450287,47 13,47 C16.8659932,47 20,43.8659932 20,40 L20,32 C20,28.1340068 16.8659932,25 13,25 C9.13400675,25 6,28.1340068 6,32 L6,38.8729507 C3.7840477,40.1548099 1.95205356,42.0266028 0.718769024,44.2735778 C0.253071467,42.9351235 0,41.4971157 0,40 L0,32 C0,24.8202983 5.82029825,19 13,19 C20.1797017,19 26,24.8202983 26,32 L26,40 C26,47.1797017 20.1797017,53 13,53 C10.8357467,53 8.7950175,52.4711304 7,51.5355787 Z" id="Combined-Shape" transform="translate(13.000000, 36.000000) scale(-1, -1) translate(-13.000000, -36.000000) "></path>
        </g>
    </g>
</svg>