<?xml version="1.0" encoding="UTF-8"?>
<svg width="72px" height="72px" viewBox="0 0 72 72" version="1.1" xmlns="http://www.w3.org/2000/svg" xmlns:xlink="http://www.w3.org/1999/xlink">
    <!-- Generator: Sketch 48.2 (47327) - http://www.bohemiancoding.com/sketch -->
    <title>empatheticbot</title>
    <desc>Created with Sketch.</desc>
    <defs></defs>
    <g id="Symbols" stroke="none" stroke-width="1" fill="none" fill-rule="evenodd">
        <g id="Robo-Final">
            <g id="Heart" transform="translate(45.000000, 4.000000)" stroke="#D0021B" stroke-linecap="round" stroke-width="9">
                <path d="M5.73060938,5.25 C5.18571094,6.75 6.82040625,8.25 9,8.75 C11.1795937,8.25 12.8142891,6.75 12.2693906,5.25" id="heart-path"></path>
            </g>
            <rect id="Background" fill="#FFFFFF" x="50" y="11" width="8" height="13" rx="3"></rect>
            <path d="M51,19.531272 L51,14 C51,12.8954305 51.8954305,12 53,12 L55,12 C56.1045695,12 57,12.8954305 57,14 L57,21.8522839 C60.365488,23.25546 62.6376944,24.3664804 62.6376944,24.3664804 C65.0439409,25.4484441 67.4985738,28.426133 68.1445231,30.986537 C68.1445231,30.986537 69.6546123,35.2950315 69.953261,44.2886598 C70.2502789,53.2331758 69.0345334,57.528334 69.0345334,57.528334 C68.5930593,60.1252195 66.1450456,62.9143754 63.6517496,63.7625375 C63.6517496,63.7625375 46.5545003,70 36.0002684,70 C25.4460365,70 8.34878732,63.7625375 8.34878732,63.7625375 C5.84762259,62.9268952 3.44401531,60.1223956 2.96260499,57.5264761 C2.96260499,57.5264761 1.74862626,53.2823159 2.04727588,44.2886598 C2.3459255,35.2950037 3.85601406,30.9865277 3.85601406,30.9865277 C4.46619074,28.4168718 6.96745435,25.4622327 9.36284253,24.3664804 C9.36284253,24.3664804 26.0940596,16.185567 36.0002684,16.185567 C40.349167,16.185567 46.0134321,17.7622537 51.0000003,19.5312729 Z M22.8956046,51.4639175 C28.8172004,51.4639175 33.6176023,46.6452091 33.6176023,40.7010309 C33.6176023,34.7568528 28.8172004,29.9381443 22.8956046,29.9381443 C16.9740089,29.9381443 12.173607,34.7568528 12.173607,40.7010309 C12.173607,46.6452091 16.9740089,51.4639175 22.8956046,51.4639175 Z M49.1049322,51.4639175 C55.026528,51.4639175 59.8269299,46.6452091 59.8269299,40.7010309 C59.8269299,34.7568528 55.026528,29.9381443 49.1049322,29.9381443 C43.1833365,29.9381443 38.3829346,34.7568528 38.3829346,40.7010309 C38.3829346,46.6452091 43.1833365,51.4639175 49.1049322,51.4639175 Z" id="Robot" fill="#282828"></path>
        </g>
    </g>
</svg>